<svg xmlns="http://www.w3.org/2000/svg" xmlns:xlink="http://www.w3.org/1999/xlink" version="1.1" id="Layer_1" x="0px" y="0px" width="100px" height="100px" viewBox="0 0 100 100" enable-background="new 0 0 100 100" xml:space="preserve">
<path d="M84.844,0H25.41L11.968,13.442v84.995L13.531,100h71.484l1.489-1.666V1.406L84.844,0z M23.858,24.75h-5.483V8.25h5.483  V24.75z M31.282,18.75h-5.482V2.25h5.482V18.75z M38.706,18.75h-5.483V2.25h5.483V18.75z M46.13,18.75h-5.483V2.25h5.483V18.75z   M53.553,18.75h-5.481V2.25h5.481V18.75z M60.978,18.75h-5.481V2.25h5.481V18.75z M68.401,18.75h-5.482V2.25h5.482V18.75z   M75.825,18.75h-5.481V2.25h5.481V18.75z M83.249,18.75h-5.481V2.25h5.481V18.75z"/>
</svg>