<?xml version="1.0" encoding="utf-8"?>
<!-- Generator: Adobe Illustrator 14.0.0, SVG Export Plug-In . SVG Version: 6.00 Build 43363)  -->
<!DOCTYPE svg PUBLIC "-//W3C//DTD SVG 1.0//EN" "http://www.w3.org/TR/2001/REC-SVG-20010904/DTD/svg10.dtd">
<svg version="1.0" id="Layer_1" xmlns="http://www.w3.org/2000/svg" xmlns:xlink="http://www.w3.org/1999/xlink" x="0px" y="0px"
	 width="43.965px" height="100px" viewBox="0 0 43.965 100" enable-background="new 0 0 43.965 100" xml:space="preserve">
<path id="path1334_1_" d="M21.985,0l-6.346,11.108h4.526v56.781L8.611,56.832c-0.744-0.938-1.269-2.17-1.297-3.438
	c0-5.122-0.003-8.163-0.004-9.284c2.141-0.758,3.685-2.797,3.685-5.221c0-3.067-2.463-5.558-5.499-5.558
	C2.461,33.332,0,35.822,0,38.889c0,2.424,1.544,4.463,3.683,5.221L3.68,53.288c0,2.486,1.349,5.093,2.933,6.75
	c-0.048-0.046-0.099-0.092,0,0.002C6.652,60.075,18.87,71.77,18.87,71.77c0.744,0.938,1.266,2.168,1.294,3.435v6.422
	c-4.196,0.853-7.359,4.599-7.359,9.095c0,5.125,4.108,9.278,9.177,9.278s9.179-4.153,9.179-9.278c0-4.496-3.164-8.242-7.366-9.095
	v-6.311c0-0.017,0-0.032,0-0.048V61.31c0.03-1.263,0.553-2.493,1.297-3.431c0,0,12.218-11.691,12.26-11.729
	c0.096-0.094,0.045-0.046,0,0c1.581-1.66,2.93-4.266,2.93-6.754l-0.001-8.842h3.685V19.443H32.974v11.112h3.681
	c0,0-0.007,2.328-0.007,8.95c-0.027,1.266-0.55,2.5-1.297,3.439L23.795,54.002V11.108h4.535L21.985,0z"/>
</svg>
